<svg width="25" height="25" viewBox="0 0 25 25" fill="none" xmlns="http://www.w3.org/2000/svg">
<rect width="25" height="25" rx="12.5" fill="white"/>
<path d="M9.57128 6.63C10.4133 7.244 11.0506 8.10667 11.5933 8.89933L12.0186 9.52467C12.1507 9.71771 12.2111 9.95085 12.1895 10.1837C12.1678 10.4166 12.0654 10.6346 11.8999 10.8L10.9959 11.704L11.0913 11.9067C11.3246 12.3793 11.7273 13.06 12.3333 13.6667C12.7524 14.078 13.224 14.4322 13.7359 14.72L13.9806 14.8513L14.1986 14.9593L14.2959 15.004L15.1993 14.1C15.3652 13.934 15.5841 13.8316 15.8179 13.8107C16.0517 13.7899 16.2853 13.8519 16.4779 13.986L17.1539 14.4547C17.9219 14.9947 18.7239 15.61 19.3473 16.4087C19.455 16.5473 19.5236 16.7123 19.5457 16.8864C19.5679 17.0606 19.5429 17.2375 19.4733 17.3987C18.9153 18.7007 17.5033 19.8093 16.0346 19.7547L15.8346 19.744L15.6793 19.7307L15.5073 19.7107L15.3199 19.6853L15.1166 19.6513L14.8993 19.6087L14.6686 19.5573L14.4246 19.4947L14.1679 19.4213L13.8999 19.3347C12.6693 18.9173 11.1073 18.0973 9.50462 16.4947C7.90195 14.892 7.08262 13.3307 6.66528 12.1L6.57862 11.832L6.50528 11.5753L6.44262 11.3313L6.39062 11.1007C6.37561 11.0284 6.36161 10.956 6.34862 10.8833L6.31528 10.68L6.28862 10.4927L6.26928 10.3207L6.25595 10.1653L6.24528 9.96533C6.19128 8.50133 7.31195 7.07933 8.60795 6.524C8.76393 6.45664 8.93475 6.431 9.10364 6.44958C9.27252 6.46817 9.43368 6.53034 9.57128 6.63ZM8.95328 7.83533C8.23862 8.20867 7.54662 9.062 7.57795 9.916L7.59128 10.1347L7.60595 10.2713L7.62528 10.4247L7.65195 10.5933L7.68595 10.778L7.72928 10.9767L7.78262 11.19L7.84662 11.416L7.92262 11.6547C7.95062 11.736 7.98039 11.8193 8.01195 11.9047L8.11462 12.166L8.23195 12.4373C8.65062 13.3587 9.33328 14.4373 10.4486 15.552C11.5633 16.6667 12.6419 17.35 13.5633 17.7687L13.8346 17.886L14.0959 17.9887C14.1813 18.0207 14.2646 18.0504 14.3459 18.078L14.5846 18.154L14.8113 18.218L15.0239 18.2713L15.2226 18.3147L15.4073 18.3487L15.5766 18.3753L15.7299 18.3953L15.8659 18.4087L16.0846 18.422C16.9273 18.4533 17.7873 17.7653 18.1593 17.06C17.6846 16.5033 17.0953 16.0467 16.4453 15.5867L15.9466 15.2393L15.8199 15.372L15.5493 15.6673L15.4059 15.818C15.0153 16.216 14.5593 16.554 14.0126 16.3333L13.8619 16.27L13.6779 16.1873L13.5753 16.1387L13.3499 16.026L13.1026 15.8927C12.4773 15.5434 11.9017 15.1118 11.3913 14.6093C10.8888 14.0989 10.4572 13.5233 10.1079 12.898L9.97462 12.6513L9.86128 12.4253L9.73062 12.1387L9.66662 11.9867C9.45928 11.474 9.74462 11.0413 10.1093 10.6667L10.2586 10.52L10.6299 10.178L10.7633 10.0513L10.4479 9.58933C9.97928 8.90933 9.52128 8.296 8.95262 7.83467L8.95328 7.83533ZM14.9953 9.02667L15.0726 9.03533C15.5579 9.12093 16.0036 9.35796 16.3459 9.71245C16.6882 10.0669 16.9094 10.5207 16.9779 11.0087C17.0024 11.1775 16.9612 11.3492 16.8629 11.4885C16.7646 11.6279 16.6166 11.7243 16.4494 11.7578C16.2821 11.7914 16.1084 11.7596 15.9639 11.669C15.8195 11.5783 15.7152 11.4358 15.6726 11.2707L15.6573 11.194C15.6305 11.0027 15.5488 10.8233 15.4222 10.6775C15.2957 10.5316 15.1295 10.4255 14.9439 10.372L14.8406 10.3487C14.6732 10.319 14.5235 10.2265 14.422 10.0901C14.3206 9.95365 14.2751 9.78362 14.2948 9.61476C14.3146 9.4459 14.3981 9.29097 14.5283 9.18165C14.6585 9.07234 14.8256 9.01689 14.9953 9.02667ZM14.9999 7C16.0608 7 17.0782 7.42143 17.8284 8.17157C18.5785 8.92172 18.9999 9.93913 18.9999 11C18.9998 11.1699 18.9347 11.3334 18.818 11.4569C18.7014 11.5805 18.542 11.6548 18.3724 11.6648C18.2027 11.6747 18.0357 11.6195 17.9054 11.5105C17.7751 11.4014 17.6914 11.2467 17.6713 11.078L17.6666 11C17.6665 10.323 17.409 9.67144 16.9462 9.17735C16.4835 8.68327 15.8501 8.38367 15.1746 8.33933L14.9999 8.33333C14.8231 8.33333 14.6536 8.26309 14.5285 8.13807C14.4035 8.01305 14.3333 7.84348 14.3333 7.66667C14.3333 7.48985 14.4035 7.32029 14.5285 7.19526C14.6536 7.07024 14.8231 7 14.9999 7Z" fill="url(#paint0_linear_147_5)"/>
<defs>
<linearGradient id="paint0_linear_147_5" x1="12.8985" y1="6.4437" x2="12.8985" y2="19.7566" gradientUnits="userSpaceOnUse">
<stop stop-color="#0067A2"/>
<stop offset="1" stop-color="#00A2FF"/>
</linearGradient>
</defs>
</svg>
