<svg width="72" height="68" viewBox="0 0 72 68" fill="none" xmlns="http://www.w3.org/2000/svg">
<g filter="url(#filter0_d_25_50)">
<path d="M29.2 52.8C29.2 54.073 28.6943 55.2939 27.7941 56.1941C26.8939 57.0943 25.673 57.6 24.4 57.6C23.1269 57.6 21.906 57.0943 21.0059 56.1941C20.1057 55.2939 19.6 54.073 19.6 52.8C19.6 51.527 20.1057 50.3061 21.0059 49.4059C21.906 48.5057 23.1269 48 24.4 48C25.673 48 26.8939 48.5057 27.7941 49.4059C28.6943 50.3061 29.2 51.527 29.2 52.8ZM51.6 52.8C51.6 54.073 51.0943 55.2939 50.1941 56.1941C49.2939 57.0943 48.073 57.6 46.8 57.6C45.5269 57.6 44.306 57.0943 43.4059 56.1941C42.5057 55.2939 42 54.073 42 52.8C42 51.527 42.5057 50.3061 43.4059 49.4059C44.306 48.5057 45.5269 48 46.8 48C48.073 48 49.2939 48.5057 50.1941 49.4059C51.0943 50.3061 51.6 51.527 51.6 52.8Z" fill="#0085D1"/>
<path d="M13.2 12.8C12.3513 12.8 11.5374 13.1371 10.9373 13.7372C10.3371 14.3374 10 15.1513 10 16V48C10 48.8487 10.3371 49.6626 10.9373 50.2627C11.5374 50.8628 12.3513 51.2 13.2 51.2H16.56C16.9272 49.3915 17.9084 47.7656 19.3372 46.5978C20.766 45.4299 22.5546 44.792 24.4 44.792C26.2454 44.792 28.034 45.4299 29.4628 46.5978C30.8916 47.7656 31.8728 49.3915 32.24 51.2H35.6C36.4487 51.2 37.2626 50.8628 37.8627 50.2627C38.4629 49.6626 38.8 48.8487 38.8 48V16C38.8 15.1513 38.4629 14.3374 37.8627 13.7372C37.2626 13.1371 36.4487 12.8 35.6 12.8H13.2ZM48.4 22.4C47.5513 22.4 46.7374 22.7371 46.1373 23.3372C45.5371 23.9374 45.2 24.7513 45.2 25.6V44.96C45.7184 44.8533 46.2517 44.8 46.8 44.8C48.6442 44.7996 50.432 45.4364 51.8606 46.6027C53.2893 47.769 54.2712 49.393 54.64 51.2H58C58.8487 51.2 59.6626 50.8628 60.2627 50.2627C60.8629 49.6626 61.2 48.8487 61.2 48V32C61.1998 31.1514 60.8626 30.3376 60.2624 29.7376L53.8624 23.3376C53.2624 22.7374 52.4486 22.4002 51.6 22.4H48.4Z" fill="#0085D1"/>
</g>
<defs>
<filter id="filter0_d_25_50" x="0" y="2.79999" width="71.2" height="64.8" filterUnits="userSpaceOnUse" color-interpolation-filters="sRGB">
<feFlood flood-opacity="0" result="BackgroundImageFix"/>
<feColorMatrix in="SourceAlpha" type="matrix" values="0 0 0 0 0 0 0 0 0 0 0 0 0 0 0 0 0 0 127 0" result="hardAlpha"/>
<feOffset/>
<feGaussianBlur stdDeviation="5"/>
<feComposite in2="hardAlpha" operator="out"/>
<feColorMatrix type="matrix" values="0 0 0 0 0 0 0 0 0 0.521569 0 0 0 0 0.819608 0 0 0 1 0"/>
<feBlend mode="normal" in2="BackgroundImageFix" result="effect1_dropShadow_25_50"/>
<feBlend mode="normal" in="SourceGraphic" in2="effect1_dropShadow_25_50" result="shape"/>
</filter>
</defs>
</svg>
